<svg xmlns="http://www.w3.org/2000/svg" width="15" height="17"><defs><filter id="a" x="719" y="370" width="15" height="17" filterUnits="userSpaceOnUse"><feFlood result="flood"/><feComposite result="composite" operator="in" in2="SourceGraphic"/><feBlend result="blend" in2="SourceGraphic"/></filter></defs><path data-name="Locked 2" d="M732 375.451a5.5 5.5 0 0 0-5.611-5.451 5.365 5.365 0 0 0-5.453 5.452h-.629a1 1 0 0 0-1.259 1.079v9.05a1.048 1.048 0 0 0 1.139 1.419h12.568a1.382 1.382 0 0 0 1.245-1.42v-8.61a1.342 1.342 0 0 0-1.247-1.531zm-1.187-.012a4.284 4.284 0 0 0-8.564 0h8.564zm-4.645 2.035a2.009 2.009 0 0 1 1.962 2.053 2.053 2.053 0 0 1-1.263 1.919c-.1.041.661 3.541.661 3.541l-2.64.019a20.682 20.682 0 0 0 .647-3.535 2.05 2.05 0 0 1-1.328-1.944 2.009 2.009 0 0 1 1.965-2.053z" transform="translate(-719 -370)" fill="#d1d1d1" fill-rule="evenodd" filter="url(#a)"/></svg>