<svg xmlns="http://www.w3.org/2000/svg" width="16" height="16"><defs><filter id="a" x="812" y="634" width="16" height="16" filterUnits="userSpaceOnUse"><feFlood result="flood" flood-color="#826550"/><feComposite result="composite" operator="in" in2="SourceGraphic"/><feBlend result="blend" in2="SourceGraphic"/></filter></defs><path data-name="In (alt) copy 4" d="M828 635v14a1 1 0 0 1-1 1h-7a1 1 0 0 1 0-2h6v-12h-6a1 1 0 0 1 0-2h7a1 1 0 0 1 1 1zm-16 7a1 1 0 0 1 1-1h9a1 1 0 0 1 0 2h-9a1 1 0 0 1-1-1zm9 1v-2h2v2h-2zm-2 3l4-4-4-4v8z" transform="translate(-812 -634)" fill="#fff" fill-rule="evenodd" filter="url(#a)"/></svg>